<?xml version="1.0" encoding="utf-8"?>
<!-- Generator: Adobe Illustrator 27.5.0, SVG Export Plug-In . SVG Version: 6.00 Build 0)  -->
<svg version="1.1" id="katman_1" xmlns="http://www.w3.org/2000/svg" xmlns:xlink="http://www.w3.org/1999/xlink" x="0px" y="0px"
	 viewBox="0 0 1588 1191" style="enable-background:new 0 0 1588 1191;" xml:space="preserve">
<path d="M244.27,551.4l1.28,4.82l-5.78,3.85c-4.5,3.21-7.06,7.06-7.06,11.56c0,3.85,1.28,8.03,3.53,15.09l24.72,77.7l22.48-61.33
	l-7.39-19.91c-4.5-12.52-9.31-20.55-16.7-26.97l1.28-4.82c29.86,1.93,56.83,1.93,86.69,0l1.28,4.82l-6.74,4.17
	c-4.5,2.89-6.42,5.78-6.42,10.6c0,3.85,1.28,8.35,3.53,15.09l25.69,78.35l20.55-54.26c2.57-7.06,3.53-12.2,3.53-18.3
	c0-11.88-7.06-23.12-22.16-35.64l1.28-4.82c21.51,1.61,43.03,1.61,64.54,0l1.28,4.82c-14.13,12.84-22.8,26.01-32.43,51.05
	l-43.03,112.38c-10.6-0.64-21.51-0.64-32.11,0l-35.64-96.65l-35.32,96.65c-10.92-0.64-22.48-0.64-33.39,0l-51.7-135.18
	c-6.74-17.34-10.27-21.83-21.19-28.26l1.28-4.82C181.97,553.33,212.48,553.33,244.27,551.4z M513.66,724.79
	c-55.23,0-90.23-35.32-90.23-88.94s37.25-88.94,91.19-88.94c50.09,0,84.77,29.22,89.91,77.7H488.61
	c1.93,40.14,20.87,57.15,54.59,57.15c19.91,0,38.85-6.42,53.62-17.66l4.82,3.53C587.83,702.96,554.76,724.79,513.66,724.79z
	 M488.29,612.09h54.91c-2.57-40.46-13.49-53.3-28.26-53.3C498.57,558.79,488.94,574.52,488.29,612.09L488.29,612.09z M692.51,551.4
	l1.28,4.82l-5.78,3.85c-4.5,3.21-7.06,7.06-7.06,11.56c0,3.85,1.28,8.03,3.53,15.09l24.72,77.7l22.48-61.33l-7.39-19.91
	c-4.5-12.52-9.31-20.55-16.7-26.97l1.28-4.82c29.86,1.93,56.83,1.93,86.69,0l1.28,4.82l-6.74,4.17c-4.5,2.89-6.42,5.78-6.42,10.6
	c0,3.85,1.28,8.35,3.53,15.09l25.69,78.35l20.55-54.26c2.57-7.06,3.53-12.2,3.53-18.3c0-11.88-7.06-23.12-22.16-35.64l1.28-4.82
	c21.51,1.61,43.03,1.61,64.54,0l1.28,4.82c-14.13,12.84-22.8,26.01-32.43,51.05l-43.03,112.38c-10.6-0.64-21.51-0.64-32.11,0
	l-35.64-96.65l-35.32,96.65c-10.92-0.64-22.48-0.64-33.39,0l-51.7-135.18c-6.74-17.34-10.27-21.83-21.19-28.26l1.28-4.82
	C630.22,553.33,660.72,553.33,692.51,551.4L692.51,551.4z M968,546.91c55.87,0,96.33,35.32,96.33,88.94s-41.1,88.94-96.97,88.94
	s-96.33-35.32-96.33-88.94S912.13,546.91,968,546.91z M938.14,629.43c0,53.94,9.63,82.84,31.15,82.84c17.34,0,27.93-14.13,27.93-70
	c0-55.87-9.63-82.84-31.15-82.84C948.74,559.43,938.14,573.56,938.14,629.43L938.14,629.43z M1067.86,719.97l-1.28-4.82l12.52-6.74
	c8.99-4.82,11.24-8.99,11.24-19.91v-92.8c0-14.13-1.61-17.66-11.24-22.48l-11.88-5.78v-4.82l16.38-2.25
	c22.48-3.21,45.59-8.03,63.58-12.84l1.61,1.28v43.99c8.03-31.47,26.01-46.24,47.2-46.24c18.62,0,30.82,11.88,30.82,27.93
	s-11.24,26.65-26.33,26.65c-13.81,0-20.87-7.06-31.47-7.06c-11.56,0-20.23,6.42-20.23,30.82v63.9c0,10.92,2.25,15.09,11.56,19.59
	l13.49,6.74l-1.28,4.82C1137.86,718.05,1102.54,718.05,1067.86,719.97L1067.86,719.97z M1302.58,631.35l41.42-35.32
	c8.35-7.39,11.56-11.56,11.56-16.7s-2.89-8.99-12.52-15.73l-10.92-7.39l1.28-4.82c29.54,1.93,61.01,1.93,90.55,0l1.28,4.82
	c-18.3,8.35-31.47,16.38-48.16,30.18l-24.72,20.55l64.54,89.91c6.42,8.67,12.52,13.49,22.16,18.3l-1.28,4.82
	c-31.47-1.93-67.11-1.93-98.57,0l-1.28-4.82c12.2-4.82,15.09-7.39,15.09-11.56c0-2.89-1.28-5.14-4.5-9.95l-37.25-52.66l-9.31,7.71
	v40.14c0,10.92,2.25,15.09,11.56,20.87l8.99,5.46l-1.28,4.82c-31.47-1.93-67.43-1.93-98.9,0l-1.28-4.82l12.52-6.74
	c8.99-4.82,11.24-8.99,11.24-19.91V515.12c0-14.13-1.61-17.66-11.24-22.48l-11.88-5.78v-4.82l16.38-2.25
	c22.48-3.21,45.27-8.03,62.93-12.84l1.61,1.28L1302.58,631.35L1302.58,631.35z"/>
</svg>
